Jibri 2024-09-06 10:38:36.905 INFO: [66] LoggingUtils$Companion$OutputLogger$1.invoke$lambda$0#42: ffmpeg version 5.1.5-0+deb12u1 Copyright (c) 2000-2024 the FFmpeg developers
Jibri 2024-09-06 10:38:36.905 INFO: [66] LoggingUtils$Companion$OutputLogger$1.invoke$lambda$0#42:   built with gcc 12 (Debian 12.2.0-14)
Jibri 2024-09-06 10:38:37.580 INFO: [66] LoggingUtils$Companion$OutputLogger$1.invoke$lambda$0#42:   configuration: --prefix=/usr --extra-version=0+deb12u1 --toolchain=hardened --libdir=/usr/lib/x86_64-linux-gnu --incdir=/usr/include/x86_64-linux-gnu --arch=amd64 --enable-gpl --disable-stripping --enable-gnutls --enable-ladspa --enable-libaom --enable-libass --enable-libbluray --enable-libbs2b --enable-libcaca --enable-libcdio --enable-libcodec2 --enable-libdav1d --enable-libflite --enable-libfontconfig --enable-libfreetype --enable-libfribidi --enable-libglslang --enable-libgme --enable-libgsm --enable-libjack --enable-libmp3lame --enable-libmysofa --enable-libopenjpeg --enable-libopenmpt --enable-libopus --enable-libpulse --enable-librabbitmq --enable-librist --enable-librubberband --enable-libshine --enable-libsnappy --enable-libsoxr --enable-libspeex --enable-libsrt --enable-libssh --enable-libsvtav1 --enable-libtheora --enable-libtwolame --enable-libvidstab --enable-libvorbis --enable-libvpx --enable-libwebp --enable-libx265 --enable-libxml2 --enable-libxvid --enable-libzimg --enable-libzmq --enable-libzvbi --enable-lv2 --enable-omx --enable-openal --enable-opencl --enable-opengl --enable-sdl2 --disable-sndio --enable-libjxl --enable-pocketsphinx --enable-librsvg --enable-libmfx --enable-libdc1394 --enable-libdrm --enable-libiec61883 --enable-chromaprint --enable-frei0r --enable-libx264 --enable-libplacebo --enable-librav1e --enable-shared
Jibri 2024-09-06 10:38:37.581 INFO: [66] LoggingUtils$Companion$OutputLogger$1.invoke$lambda$0#42:   libavutil      57. 28.100 / 57. 28.100
Jibri 2024-09-06 10:38:37.581 INFO: [66] LoggingUtils$Companion$OutputLogger$1.invoke$lambda$0#42:   libavcodec     59. 37.100 / 59. 37.100
Jibri 2024-09-06 10:38:37.581 INFO: [66] LoggingUtils$Companion$OutputLogger$1.invoke$lambda$0#42:   libavformat    59. 27.100 / 59. 27.100
Jibri 2024-09-06 10:38:37.581 INFO: [66] LoggingUtils$Companion$OutputLogger$1.invoke$lambda$0#42:   libavdevice    59.  7.100 / 59.  7.100
Jibri 2024-09-06 10:38:37.581 INFO: [66] LoggingUtils$Companion$OutputLogger$1.invoke$lambda$0#42:   libavfilter     8. 44.100 /  8. 44.100
Jibri 2024-09-06 10:38:37.581 INFO: [66] LoggingUtils$Companion$OutputLogger$1.invoke$lambda$0#42:   libswscale      6.  7.100 /  6.  7.100
Jibri 2024-09-06 10:38:37.581 INFO: [66] LoggingUtils$Companion$OutputLogger$1.invoke$lambda$0#42:   libswresample   4.  7.100 /  4.  7.100
Jibri 2024-09-06 10:38:37.581 INFO: [66] LoggingUtils$Companion$OutputLogger$1.invoke$lambda$0#42:   libpostproc    56.  6.100 / 56.  6.100
Jibri 2024-09-06 10:38:37.581 INFO: [66] LoggingUtils$Companion$OutputLogger$1.invoke$lambda$0#42: [x11grab @ 0x558832042480] Stream #0: not enough frames to estimate rate; consider increasing probesize
Jibri 2024-09-06 10:38:37.581 INFO: [66] LoggingUtils$Companion$OutputLogger$1.invoke$lambda$0#42: Input #0, x11grab, from ':0.0+0,0':
Jibri 2024-09-06 10:38:37.581 INFO: [66] LoggingUtils$Companion$OutputLogger$1.invoke$lambda$0#42:   Duration: N/A, start: 1725619117.530968, bitrate: 884736 kb/s
Jibri 2024-09-06 10:38:38.149 INFO: [66] LoggingUtils$Companion$OutputLogger$1.invoke$lambda$0#42:   Stream #0:0: Video: rawvideo (BGR[0] / 0x524742), bgr0, 1280x720, 884736 kb/s, 30 fps, 1000k tbr, 1000k tbn
Jibri 2024-09-06 10:38:38.149 INFO: [66] LoggingUtils$Companion$OutputLogger$1.invoke$lambda$0#42: Guessed Channel Layout for Input Stream #1.0 : stereo
Jibri 2024-09-06 10:38:38.149 INFO: [66] LoggingUtils$Companion$OutputLogger$1.invoke$lambda$0#42: Input #1, pulse, from 'default':
Jibri 2024-09-06 10:38:38.149 INFO: [66] LoggingUtils$Companion$OutputLogger$1.invoke$lambda$0#42:   Duration: N/A, start: 1725619117.578933, bitrate: 1536 kb/s
Jibri 2024-09-06 10:38:38.149 INFO: [66] LoggingUtils$Companion$OutputLogger$1.invoke$lambda$0#42:   Stream #1:0: Audio: pcm_s16le, 48000 Hz, stereo, s16, 1536 kb/s
Jibri 2024-09-06 10:38:38.149 INFO: [66] LoggingUtils$Companion$OutputLogger$1.invoke$lambda$0#42: timestamp is deprecated, set the 'creation_time' metadata tag instead.
Jibri 2024-09-06 10:38:38.149 INFO: [66] LoggingUtils$Companion$OutputLogger$1.invoke$lambda$0#42: Stream mapping:
Jibri 2024-09-06 10:38:38.149 INFO: [66] LoggingUtils$Companion$OutputLogger$1.invoke$lambda$0#42:   Stream #0:0 -> #0:0 (rawvideo (native) -> h264 (libx264))
Jibri 2024-09-06 10:38:38.149 INFO: [66] LoggingUtils$Companion$OutputLogger$1.invoke$lambda$0#42:   Stream #1:0 -> #0:1 (pcm_s16le (native) -> aac (native))
Jibri 2024-09-06 10:38:38.149 INFO: [66] LoggingUtils$Companion$OutputLogger$1.invoke$lambda$0#42: Press [q] to stop, [?] for help
Jibri 2024-09-06 10:38:38.149 INFO: [66] LoggingUtils$Companion$OutputLogger$1.invoke$lambda$0#42: [libx264 @ 0x55883205ae40] using cpu capabilities: MMX2 SSE2Fast SSSE3 SSE4.2
Jibri 2024-09-06 10:38:38.149 INFO: [66] LoggingUtils$Companion$OutputLogger$1.invoke$lambda$0#42: [libx264 @ 0x55883205ae40] profile Main, level 3.1, 4:2:0, 8-bit
Jibri 2024-09-06 10:38:38.680 INFO: [66] LoggingUtils$Companion$OutputLogger$1.invoke$lambda$0#42: [libx264 @ 0x55883205ae40] 264 - core 164 r3095 baee400 - H.264/MPEG-4 AVC codec - Copyleft 2003-2022 - http://www.videolan.org/x264.html - options: cabac=1 ref=1 deblock=1:0:0 analyse=0x1:0x111 me=hex subme=2 psy=1 psy_rd=1.00:0.00 mixed_ref=0 me_range=16 chroma_me=1 trellis=0 8x8dct=0 cqm=0 deadzone=21,11 fast_pskip=1 chroma_qp_offset=0 threads=8 lookahead_threads=8 sliced_threads=1 slices=8 nr=0 decimate=1 interlaced=0 bluray_compat=0 constrained_intra=0 bframes=0 weightp=1 keyint=60 keyint_min=6 scenecut=40 intra_refresh=0 rc=crf mbtree=0 crf=25.0 qcomp=0.60 qpmin=0 qpmax=69 qpstep=4 ip_ratio=1.40 aq=1:1.00
Jibri 2024-09-06 10:38:38.680 INFO: [66] LoggingUtils$Companion$OutputLogger$1.invoke$lambda$0#42: Output #0, mp4, to '/config/recordings/40bf4237-5c01-48d2-bd1c-6045324e4352/demo_2024-09-06-10-38-19.mp4':
Jibri 2024-09-06 10:38:38.680 INFO: [66] LoggingUtils$Companion$OutputLogger$1.invoke$lambda$0#42:   Metadata:
Jibri 2024-09-06 10:38:38.680 INFO: [66] LoggingUtils$Companion$OutputLogger$1.invoke$lambda$0#42:     creation_time   : 2024-09-06T10:38:37+0000
Jibri 2024-09-06 10:38:38.680 INFO: [66] LoggingUtils$Companion$OutputLogger$1.invoke$lambda$0#42:     encoder         : Lavf59.27.100
Jibri 2024-09-06 10:38:38.680 INFO: [66] LoggingUtils$Companion$OutputLogger$1.invoke$lambda$0#42:   Stream #0:0: Video: h264 (avc1 / 0x31637661), yuv420p(tv, progressive), 1280x720, q=2-31, 30 fps, 15360 tbn
Jibri 2024-09-06 10:38:38.680 INFO: [66] LoggingUtils$Companion$OutputLogger$1.invoke$lambda$0#42:     Metadata:
Jibri 2024-09-06 10:38:38.680 INFO: [66] LoggingUtils$Companion$OutputLogger$1.invoke$lambda$0#42:       encoder         : Lavc59.37.100 libx264
Jibri 2024-09-06 10:38:38.680 INFO: [66] LoggingUtils$Companion$OutputLogger$1.invoke$lambda$0#42:     Side data:
Jibri 2024-09-06 10:38:38.680 INFO: [66] LoggingUtils$Companion$OutputLogger$1.invoke$lambda$0#42:       cpb: bitrate max/min/avg: 0/0/0 buffer size: 0 vbv_delay: N/A
Jibri 2024-09-06 10:38:38.680 INFO: [66] LoggingUtils$Companion$OutputLogger$1.invoke$lambda$0#42:   Stream #0:1: Audio: aac (LC) (mp4a / 0x6134706D), 44100 Hz, stereo, fltp, 128 kb/s
Jibri 2024-09-06 10:38:38.680 INFO: [66] LoggingUtils$Companion$OutputLogger$1.invoke$lambda$0#42:     Metadata:
Jibri 2024-09-06 10:38:38.680 INFO: [66] LoggingUtils$Companion$OutputLogger$1.invoke$lambda$0#42:       encoder         : Lavc59.37.100 aac
Jibri 2024-09-06 10:38:38.680 INFO: [66] LoggingUtils$Companion$OutputLogger$1.invoke$lambda$0#42: frame=    1 fps=0.0 q=22.0 size=       0kB time=00:00:00.00 bitrate=5907.7kbits/s speed=0.000126x    
Jibri 2024-09-06 10:38:39.681 INFO: [66] LoggingUtils$Companion$OutputLogger$1.invoke$lambda$0#42: frame=   31 fps= 30 q=21.0 size=       0kB time=00:00:01.00 bitrate=   0.4kbits/s speed=0.977x    
Jibri 2024-09-06 10:38:39.681 INFO: [66] LoggingUtils$Companion$OutputLogger$1.invoke$lambda$0#42: frame=   46 fps= 30 q=21.0 size=       0kB time=00:00:01.50 bitrate=   0.3kbits/s speed=0.987x    
Jibri 2024-09-06 10:38:40.681 INFO: [66] LoggingUtils$Companion$OutputLogger$1.invoke$lambda$0#42: frame=   61 fps= 30 q=18.0 size=       0kB time=00:00:02.02 bitrate=   0.2kbits/s speed=0.992x    
Jibri 2024-09-06 10:38:40.681 INFO: [66] LoggingUtils$Companion$OutputLogger$1.invoke$lambda$0#42: frame=   75 fps= 30 q=21.0 size=       0kB time=00:00:02.53 bitrate=   0.2kbits/s speed=0.996x    
Jibri 2024-09-06 10:38:41.681 INFO: [66] LoggingUtils$Companion$OutputLogger$1.invoke$lambda$0#42: frame=   91 fps= 30 q=21.0 size=       0kB time=00:00:03.04 bitrate=   0.1kbits/s speed=0.998x    
Jibri 2024-09-06 10:38:41.681 INFO: [66] LoggingUtils$Companion$OutputLogger$1.invoke$lambda$0#42: frame=  106 fps= 30 q=21.0 size=       0kB time=00:00:03.55 bitrate=   0.1kbits/s speed=0.999x    
Jibri 2024-09-06 10:38:42.682 INFO: [66] LoggingUtils$Companion$OutputLogger$1.invoke$lambda$0#42: frame=  121 fps= 30 q=18.0 size=       0kB time=00:00:04.06 bitrate=   0.1kbits/s speed=0.999x    
Jibri 2024-09-06 10:38:42.682 INFO: [66] LoggingUtils$Companion$OutputLogger$1.invoke$lambda$0#42: frame=  137 fps= 30 q=21.0 size=       0kB time=00:00:04.53 bitrate=   0.1kbits/s speed=0.991x    
Jibri 2024-09-06 10:38:43.068 INFO: [66] LoggingUtils$Companion$OutputLogger$1.invoke$lambda$0#42: frame=  152 fps= 30 q=21.0 size=       0kB time=00:00:05.03 bitrate=   0.1kbits/s speed=0.992x    
Jibri 2024-09-06 10:38:43.068 INFO: [66] LoggingUtils$Companion$OutputLogger$1.invoke$lambda$0#42: frame=  160 fps= 30 q=21.0 Lsize=      35kB time=00:00:05.36 bitrate=  53.5kbits/s speed=0.991x    
Jibri 2024-09-06 10:38:43.068 INFO: [66] LoggingUtils$Companion$OutputLogger$1.invoke$lambda$0#42: video:27kB audio:1kB subtitle:0kB other streams:0kB global headers:0kB muxing overhead: 24.392443%
Jibri 2024-09-06 10:38:43.068 INFO: [66] LoggingUtils$Companion$OutputLogger$1.invoke$lambda$0#42: [libx264 @ 0x55883205ae40] frame I:3     Avg QP: 4.38  size:  1018
Jibri 2024-09-06 10:38:43.068 INFO: [66] LoggingUtils$Companion$OutputLogger$1.invoke$lambda$0#42: [libx264 @ 0x55883205ae40] frame P:157   Avg QP: 6.04  size:   151
Jibri 2024-09-06 10:38:43.068 INFO: [66] LoggingUtils$Companion$OutputLogger$1.invoke$lambda$0#42: [libx264 @ 0x55883205ae40] mb I  I16..4: 99.6%  0.0%  0.4%
Jibri 2024-09-06 10:38:43.068 INFO: [66] LoggingUtils$Companion$OutputLogger$1.invoke$lambda$0#42: [libx264 @ 0x55883205ae40] mb P  I16..4:  0.0%  0.0%  0.0%  P16..4:  0.0%  0.0%  0.0%  0.0%  0.0%    skip:100.0%
Jibri 2024-09-06 10:38:43.068 INFO: [66] LoggingUtils$Companion$OutputLogger$1.invoke$lambda$0#42: [libx264 @ 0x55883205ae40] coded y,uvDC,uvAC intra: 0.3% 0.0% 0.0% inter: 0.0% 0.0% 0.0%
Jibri 2024-09-06 10:38:43.068 INFO: [66] LoggingUtils$Companion$OutputLogger$1.invoke$lambda$0#42: [libx264 @ 0x55883205ae40] i16 v,h,dc,p: 82%  0% 18%  0%
Jibri 2024-09-06 10:38:43.068 INFO: [66] LoggingUtils$Companion$OutputLogger$1.invoke$lambda$0#42: [libx264 @ 0x55883205ae40] i4 v,h,dc,ddl,ddr,vr,hd,vl,hu:  5% 14% 78%  1%  0%  1%  0%  1%  0%
Jibri 2024-09-06 10:38:43.068 INFO: [66] LoggingUtils$Companion$OutputLogger$1.invoke$lambda$0#42: [libx264 @ 0x55883205ae40] i8c dc,h,v,p: 100%  0%  0%  0%
Jibri 2024-09-06 10:38:43.068 INFO: [66] LoggingUtils$Companion$OutputLogger$1.invoke$lambda$0#42: [libx264 @ 0x55883205ae40] Weighted P-Frames: Y:0.0% UV:0.0%
Jibri 2024-09-06 10:38:43.068 INFO: [66] LoggingUtils$Companion$OutputLogger$1.invoke$lambda$0#42: [libx264 @ 0x55883205ae40] kb/s:40.23
Jibri 2024-09-06 10:38:43.788 INFO: [66] LoggingUtils$Companion$OutputLogger$1.invoke$lambda$0#42: [aac @ 0x55883205bf80] Qavg: 65536.000
Jibri 2024-09-06 10:38:43.788 INFO: [66] LoggingUtils$Companion$OutputLogger$1.invoke$lambda$0#42: Exiting normally, received signal 2.
Jibri 2024-09-10 04:50:55.244 INFO: [1656] LoggingUtils$Companion$OutputLogger$1.invoke$lambda$0#42: ffmpeg version 5.1.5-0+deb12u1 Copyright (c) 2000-2024 the FFmpeg developers
Jibri 2024-09-10 04:50:55.244 INFO: [1656] LoggingUtils$Companion$OutputLogger$1.invoke$lambda$0#42:   built with gcc 12 (Debian 12.2.0-14)
Jibri 2024-09-10 04:50:55.313 INFO: [1656] LoggingUtils$Companion$OutputLogger$1.invoke$lambda$0#42:   configuration: --prefix=/usr --extra-version=0+deb12u1 --toolchain=hardened --libdir=/usr/lib/x86_64-linux-gnu --incdir=/usr/include/x86_64-linux-gnu --arch=amd64 --enable-gpl --disable-stripping --enable-gnutls --enable-ladspa --enable-libaom --enable-libass --enable-libbluray --enable-libbs2b --enable-libcaca --enable-libcdio --enable-libcodec2 --enable-libdav1d --enable-libflite --enable-libfontconfig --enable-libfreetype --enable-libfribidi --enable-libglslang --enable-libgme --enable-libgsm --enable-libjack --enable-libmp3lame --enable-libmysofa --enable-libopenjpeg --enable-libopenmpt --enable-libopus --enable-libpulse --enable-librabbitmq --enable-librist --enable-librubberband --enable-libshine --enable-libsnappy --enable-libsoxr --enable-libspeex --enable-libsrt --enable-libssh --enable-libsvtav1 --enable-libtheora --enable-libtwolame --enable-libvidstab --enable-libvorbis --enable-libvpx --enable-libwebp --enable-libx265 --enable-libxml2 --enable-libxvid --enable-libzimg --enable-libzmq --enable-libzvbi --enable-lv2 --enable-omx --enable-openal --enable-opencl --enable-opengl --enable-sdl2 --disable-sndio --enable-libjxl --enable-pocketsphinx --enable-librsvg --enable-libmfx --enable-libdc1394 --enable-libdrm --enable-libiec61883 --enable-chromaprint --enable-frei0r --enable-libx264 --enable-libplacebo --enable-librav1e --enable-shared
Jibri 2024-09-10 04:50:55.313 INFO: [1656] LoggingUtils$Companion$OutputLogger$1.invoke$lambda$0#42:   libavutil      57. 28.100 / 57. 28.100
Jibri 2024-09-10 04:50:55.313 INFO: [1656] LoggingUtils$Companion$OutputLogger$1.invoke$lambda$0#42:   libavcodec     59. 37.100 / 59. 37.100
Jibri 2024-09-10 04:50:55.313 INFO: [1656] LoggingUtils$Companion$OutputLogger$1.invoke$lambda$0#42:   libavformat    59. 27.100 / 59. 27.100
Jibri 2024-09-10 04:50:55.313 INFO: [1656] LoggingUtils$Companion$OutputLogger$1.invoke$lambda$0#42:   libavdevice    59.  7.100 / 59.  7.100
Jibri 2024-09-10 04:50:55.313 INFO: [1656] LoggingUtils$Companion$OutputLogger$1.invoke$lambda$0#42:   libavfilter     8. 44.100 /  8. 44.100
Jibri 2024-09-10 04:50:55.313 INFO: [1656] LoggingUtils$Companion$OutputLogger$1.invoke$lambda$0#42:   libswscale      6.  7.100 /  6.  7.100
Jibri 2024-09-10 04:50:55.313 INFO: [1656] LoggingUtils$Companion$OutputLogger$1.invoke$lambda$0#42:   libswresample   4.  7.100 /  4.  7.100
Jibri 2024-09-10 04:50:55.313 INFO: [1656] LoggingUtils$Companion$OutputLogger$1.invoke$lambda$0#42:   libpostproc    56.  6.100 / 56.  6.100
Jibri 2024-09-10 04:50:55.313 INFO: [1656] LoggingUtils$Companion$OutputLogger$1.invoke$lambda$0#42: [x11grab @ 0x55a83cb44480] Stream #0: not enough frames to estimate rate; consider increasing probesize
Jibri 2024-09-10 04:50:55.313 INFO: [1656] LoggingUtils$Companion$OutputLogger$1.invoke$lambda$0#42: Input #0, x11grab, from ':0.0+0,0':
Jibri 2024-09-10 04:50:55.313 INFO: [1656] LoggingUtils$Companion$OutputLogger$1.invoke$lambda$0#42:   Duration: N/A, start: 1725943855.277632, bitrate: 884736 kb/s
Jibri 2024-09-10 04:50:56.121 INFO: [1656] LoggingUtils$Companion$OutputLogger$1.invoke$lambda$0#42:   Stream #0:0: Video: rawvideo (BGR[0] / 0x524742), bgr0, 1280x720, 884736 kb/s, 30 fps, 1000k tbr, 1000k tbn
Jibri 2024-09-10 04:50:56.121 INFO: [1656] LoggingUtils$Companion$OutputLogger$1.invoke$lambda$0#42: Guessed Channel Layout for Input Stream #1.0 : stereo
Jibri 2024-09-10 04:50:56.122 INFO: [1656] LoggingUtils$Companion$OutputLogger$1.invoke$lambda$0#42: Input #1, pulse, from 'default':
Jibri 2024-09-10 04:50:56.122 INFO: [1656] LoggingUtils$Companion$OutputLogger$1.invoke$lambda$0#42:   Duration: N/A, start: 1725943855.945897, bitrate: 1536 kb/s
Jibri 2024-09-10 04:50:56.122 INFO: [1656] LoggingUtils$Companion$OutputLogger$1.invoke$lambda$0#42:   Stream #1:0: Audio: pcm_s16le, 48000 Hz, stereo, s16, 1536 kb/s
Jibri 2024-09-10 04:50:56.122 INFO: [1656] LoggingUtils$Companion$OutputLogger$1.invoke$lambda$0#42: timestamp is deprecated, set the 'creation_time' metadata tag instead.
Jibri 2024-09-10 04:50:56.122 INFO: [1656] LoggingUtils$Companion$OutputLogger$1.invoke$lambda$0#42: Stream mapping:
Jibri 2024-09-10 04:50:56.122 INFO: [1656] LoggingUtils$Companion$OutputLogger$1.invoke$lambda$0#42:   Stream #0:0 -> #0:0 (rawvideo (native) -> h264 (libx264))
Jibri 2024-09-10 04:50:56.122 INFO: [1656] LoggingUtils$Companion$OutputLogger$1.invoke$lambda$0#42:   Stream #1:0 -> #0:1 (pcm_s16le (native) -> aac (native))
Jibri 2024-09-10 04:50:56.122 INFO: [1656] LoggingUtils$Companion$OutputLogger$1.invoke$lambda$0#42: Press [q] to stop, [?] for help
Jibri 2024-09-10 04:50:56.122 INFO: [1656] LoggingUtils$Companion$OutputLogger$1.invoke$lambda$0#42: [libx264 @ 0x55a83cb5ce40] using cpu capabilities: MMX2 SSE2Fast SSSE3 SSE4.2
Jibri 2024-09-10 04:50:56.122 INFO: [1656] LoggingUtils$Companion$OutputLogger$1.invoke$lambda$0#42: [libx264 @ 0x55a83cb5ce40] profile Main, level 3.1, 4:2:0, 8-bit
Jibri 2024-09-10 04:50:56.626 INFO: [1656] LoggingUtils$Companion$OutputLogger$1.invoke$lambda$0#42: [libx264 @ 0x55a83cb5ce40] 264 - core 164 r3095 baee400 - H.264/MPEG-4 AVC codec - Copyleft 2003-2022 - http://www.videolan.org/x264.html - options: cabac=1 ref=1 deblock=1:0:0 analyse=0x1:0x111 me=hex subme=2 psy=1 psy_rd=1.00:0.00 mixed_ref=0 me_range=16 chroma_me=1 trellis=0 8x8dct=0 cqm=0 deadzone=21,11 fast_pskip=1 chroma_qp_offset=0 threads=8 lookahead_threads=8 sliced_threads=1 slices=8 nr=0 decimate=1 interlaced=0 bluray_compat=0 constrained_intra=0 bframes=0 weightp=1 keyint=60 keyint_min=6 scenecut=40 intra_refresh=0 rc=crf mbtree=0 crf=25.0 qcomp=0.60 qpmin=0 qpmax=69 qpstep=4 ip_ratio=1.40 aq=1:1.00
Jibri 2024-09-10 04:50:56.626 INFO: [1656] LoggingUtils$Companion$OutputLogger$1.invoke$lambda$0#42: Output #0, mp4, to '/config/recordings/ac9522fe-2936-4e51-9468-d72a58075da7/demo_2024-09-10-04-50-53.mp4':
Jibri 2024-09-10 04:50:56.626 INFO: [1656] LoggingUtils$Companion$OutputLogger$1.invoke$lambda$0#42:   Metadata:
Jibri 2024-09-10 04:50:56.626 INFO: [1656] LoggingUtils$Companion$OutputLogger$1.invoke$lambda$0#42:     creation_time   : 2024-09-10T04:50:56+0000
Jibri 2024-09-10 04:50:56.626 INFO: [1656] LoggingUtils$Companion$OutputLogger$1.invoke$lambda$0#42:     encoder         : Lavf59.27.100
Jibri 2024-09-10 04:50:56.626 INFO: [1656] LoggingUtils$Companion$OutputLogger$1.invoke$lambda$0#42:   Stream #0:0: Video: h264 (avc1 / 0x31637661), yuv420p(tv, progressive), 1280x720, q=2-31, 30 fps, 15360 tbn
Jibri 2024-09-10 04:50:56.626 INFO: [1656] LoggingUtils$Companion$OutputLogger$1.invoke$lambda$0#42:     Metadata:
Jibri 2024-09-10 04:50:56.626 INFO: [1656] LoggingUtils$Companion$OutputLogger$1.invoke$lambda$0#42:       encoder         : Lavc59.37.100 libx264
Jibri 2024-09-10 04:50:56.626 INFO: [1656] LoggingUtils$Companion$OutputLogger$1.invoke$lambda$0#42:     Side data:
Jibri 2024-09-10 04:50:56.626 INFO: [1656] LoggingUtils$Companion$OutputLogger$1.invoke$lambda$0#42:       cpb: bitrate max/min/avg: 0/0/0 buffer size: 0 vbv_delay: N/A
Jibri 2024-09-10 04:50:56.626 INFO: [1656] LoggingUtils$Companion$OutputLogger$1.invoke$lambda$0#42:   Stream #0:1: Audio: aac (LC) (mp4a / 0x6134706D), 44100 Hz, stereo, fltp, 128 kb/s
Jibri 2024-09-10 04:50:56.626 INFO: [1656] LoggingUtils$Companion$OutputLogger$1.invoke$lambda$0#42:     Metadata:
Jibri 2024-09-10 04:50:56.626 INFO: [1656] LoggingUtils$Companion$OutputLogger$1.invoke$lambda$0#42:       encoder         : Lavc59.37.100 aac
Jibri 2024-09-10 04:50:56.626 INFO: [1656] LoggingUtils$Companion$OutputLogger$1.invoke$lambda$0#42: frame=    1 fps=0.0 q=22.0 size=       0kB time=00:00:00.00 bitrate=5907.7kbits/s speed=0.00335x    
Jibri 2024-09-10 04:50:57.626 INFO: [1656] LoggingUtils$Companion$OutputLogger$1.invoke$lambda$0#42: frame=   19 fps=0.0 q=21.0 size=       0kB time=00:00:00.60 bitrate=   0.6kbits/s speed=1.16x    
Jibri 2024-09-10 04:50:57.627 INFO: [1656] LoggingUtils$Companion$OutputLogger$1.invoke$lambda$0#42: frame=   33 fps= 32 q=21.0 size=       0kB time=00:00:01.11 bitrate=   0.3kbits/s speed=1.08x    
Jibri 2024-09-10 04:50:58.627 INFO: [1656] LoggingUtils$Companion$OutputLogger$1.invoke$lambda$0#42: frame=   48 fps= 31 q=21.0 size=       0kB time=00:00:01.62 bitrate=   0.2kbits/s speed=1.06x    
Jibri 2024-09-10 04:50:58.627 INFO: [1656] LoggingUtils$Companion$OutputLogger$1.invoke$lambda$0#42: frame=   63 fps= 31 q=22.0 size=       0kB time=00:00:02.13 bitrate=   0.2kbits/s speed=1.04x    
Jibri 2024-09-10 04:50:59.627 INFO: [1656] LoggingUtils$Companion$OutputLogger$1.invoke$lambda$0#42: frame=   79 fps= 31 q=21.0 size=       0kB time=00:00:02.60 bitrate=   0.1kbits/s speed=1.02x    
Jibri 2024-09-10 04:50:59.627 INFO: [1656] LoggingUtils$Companion$OutputLogger$1.invoke$lambda$0#42: frame=   94 fps= 31 q=21.0 size=       0kB time=00:00:03.11 bitrate=   0.1kbits/s speed=1.02x    
Jibri 2024-09-10 04:51:00.627 INFO: [1656] LoggingUtils$Companion$OutputLogger$1.invoke$lambda$0#42: frame=  109 fps= 31 q=21.0 size=       0kB time=00:00:03.62 bitrate=   0.1kbits/s speed=1.02x    
Jibri 2024-09-10 04:51:00.627 INFO: [1656] LoggingUtils$Companion$OutputLogger$1.invoke$lambda$0#42: frame=  125 fps= 31 q=21.0 size=       0kB time=00:00:04.13 bitrate=   0.1kbits/s speed=1.02x    
Jibri 2024-09-10 04:51:01.627 INFO: [1656] LoggingUtils$Companion$OutputLogger$1.invoke$lambda$0#42: frame=  139 fps= 30 q=21.0 size=       0kB time=00:00:04.64 bitrate=   0.1kbits/s speed=1.02x    
Jibri 2024-09-10 04:51:01.627 INFO: [1656] LoggingUtils$Companion$OutputLogger$1.invoke$lambda$0#42: frame=  154 fps= 30 q=21.0 size=       0kB time=00:00:05.15 bitrate=   0.1kbits/s speed=1.02x    
Jibri 2024-09-10 04:51:02.627 INFO: [1656] LoggingUtils$Companion$OutputLogger$1.invoke$lambda$0#42: frame=  170 fps= 30 q=21.0 size=       0kB time=00:00:05.68 bitrate=   0.1kbits/s speed=1.02x    
Jibri 2024-09-10 04:51:02.628 INFO: [1656] LoggingUtils$Companion$OutputLogger$1.invoke$lambda$0#42: frame=  185 fps= 30 q=21.0 size=       0kB time=00:00:06.15 bitrate=   0.1kbits/s speed=1.01x    
Jibri 2024-09-10 04:51:03.628 INFO: [1656] LoggingUtils$Companion$OutputLogger$1.invoke$lambda$0#42: frame=  201 fps= 30 q=21.0 size=       0kB time=00:00:06.66 bitrate=   0.1kbits/s speed=1.01x    
Jibri 2024-09-10 04:51:03.688 INFO: [1656] LoggingUtils$Companion$OutputLogger$1.invoke$lambda$0#42: frame=  216 fps= 30 q=21.0 size=       0kB time=00:00:07.17 bitrate=   0.1kbits/s speed=1.01x    
Jibri 2024-09-10 04:51:04.688 INFO: [1656] LoggingUtils$Companion$OutputLogger$1.invoke$lambda$0#42: frame=  231 fps= 30 q=21.0 size=       0kB time=00:00:07.68 bitrate=   0.0kbits/s speed=1.01x    
Jibri 2024-09-10 04:51:04.688 INFO: [1656] LoggingUtils$Companion$OutputLogger$1.invoke$lambda$0#42: frame=  247 fps= 30 q=21.0 size=       0kB time=00:00:08.20 bitrate=   0.0kbits/s speed=1.01x    
Jibri 2024-09-10 04:51:05.688 INFO: [1656] LoggingUtils$Companion$OutputLogger$1.invoke$lambda$0#42: frame=  262 fps= 30 q=21.0 size=       0kB time=00:00:08.70 bitrate=   0.0kbits/s speed=1.01x    
Jibri 2024-09-10 04:51:05.688 INFO: [1656] LoggingUtils$Companion$OutputLogger$1.invoke$lambda$0#42: frame=  277 fps= 30 q=21.0 size=       0kB time=00:00:09.21 bitrate=   0.0kbits/s speed=1.01x    
Jibri 2024-09-10 04:51:06.689 INFO: [1656] LoggingUtils$Companion$OutputLogger$1.invoke$lambda$0#42: frame=  293 fps= 30 q=21.0 size=       0kB time=00:00:09.73 bitrate=   0.0kbits/s speed=1.01x    
Jibri 2024-09-10 04:51:06.689 INFO: [1656] LoggingUtils$Companion$OutputLogger$1.invoke$lambda$0#42: frame=  307 fps= 30 q=21.0 size=       0kB time=00:00:10.24 bitrate=   0.0kbits/s speed=1.01x    
Jibri 2024-09-10 04:51:07.689 INFO: [1656] LoggingUtils$Companion$OutputLogger$1.invoke$lambda$0#42: frame=  323 fps= 30 q=21.0 size=       0kB time=00:00:10.73 bitrate=   0.0kbits/s speed=1.01x    
Jibri 2024-09-10 04:51:07.689 INFO: [1656] LoggingUtils$Companion$OutputLogger$1.invoke$lambda$0#42: frame=  338 fps= 30 q=21.0 size=       0kB time=00:00:11.23 bitrate=   0.0kbits/s speed=1.01x    
Jibri 2024-09-10 04:51:08.689 INFO: [1656] LoggingUtils$Companion$OutputLogger$1.invoke$lambda$0#42: frame=  353 fps= 30 q=21.0 size=       0kB time=00:00:11.74 bitrate=   0.0kbits/s speed=1.01x    
Jibri 2024-09-10 04:51:08.689 INFO: [1656] LoggingUtils$Companion$OutputLogger$1.invoke$lambda$0#42: frame=  369 fps= 30 q=21.0 size=       0kB time=00:00:12.26 bitrate=   0.0kbits/s speed=1.01x    
Jibri 2024-09-10 04:51:08.946 INFO: [1656] LoggingUtils$Companion$OutputLogger$1.invoke$lambda$0#42: frame=  384 fps= 30 q=21.0 size=       0kB time=00:00:12.77 bitrate=   0.0kbits/s speed=1.01x    
Jibri 2024-09-10 04:51:08.946 INFO: [1656] LoggingUtils$Companion$OutputLogger$1.invoke$lambda$0#42: frame=  388 fps= 30 q=21.0 Lsize=     116kB time=00:00:12.95 bitrate=  73.6kbits/s speed=1.01x    
Jibri 2024-09-10 04:51:08.946 INFO: [1656] LoggingUtils$Companion$OutputLogger$1.invoke$lambda$0#42: video:90kB audio:12kB subtitle:0kB other streams:0kB global headers:0kB muxing overhead: 14.496485%
Jibri 2024-09-10 04:51:08.946 INFO: [1656] LoggingUtils$Companion$OutputLogger$1.invoke$lambda$0#42: [libx264 @ 0x55a83cb5ce40] frame I:7     Avg QP: 4.04  size:  4155
Jibri 2024-09-10 04:51:08.946 INFO: [1656] LoggingUtils$Companion$OutputLogger$1.invoke$lambda$0#42: [libx264 @ 0x55a83cb5ce40] frame P:381   Avg QP: 6.15  size:   163
Jibri 2024-09-10 04:51:08.946 INFO: [1656] LoggingUtils$Companion$OutputLogger$1.invoke$lambda$0#42: [libx264 @ 0x55a83cb5ce40] mb I  I16..4: 97.8%  0.0%  2.2%
Jibri 2024-09-10 04:51:08.946 INFO: [1656] LoggingUtils$Companion$OutputLogger$1.invoke$lambda$0#42: [libx264 @ 0x55a83cb5ce40] mb P  I16..4:  0.0%  0.0%  0.0%  P16..4:  0.0%  0.0%  0.0%  0.0%  0.0%    skip:100.0%
Jibri 2024-09-10 04:51:08.946 INFO: [1656] LoggingUtils$Companion$OutputLogger$1.invoke$lambda$0#42: [libx264 @ 0x55a83cb5ce40] coded y,uvDC,uvAC intra: 1.9% 1.8% 1.6% inter: 0.0% 0.0% 0.0%
Jibri 2024-09-10 04:51:08.946 INFO: [1656] LoggingUtils$Companion$OutputLogger$1.invoke$lambda$0#42: [libx264 @ 0x55a83cb5ce40] i16 v,h,dc,p: 81%  1% 18%  0%
Jibri 2024-09-10 04:51:08.946 INFO: [1656] LoggingUtils$Companion$OutputLogger$1.invoke$lambda$0#42: [libx264 @ 0x55a83cb5ce40] i4 v,h,dc,ddl,ddr,vr,hd,vl,hu: 22% 20% 41%  4%  3%  3%  2%  2%  3%
Jibri 2024-09-10 04:51:08.946 INFO: [1656] LoggingUtils$Companion$OutputLogger$1.invoke$lambda$0#42: [libx264 @ 0x55a83cb5ce40] i8c dc,h,v,p: 99%  0%  1%  0%
Jibri 2024-09-10 04:51:08.946 INFO: [1656] LoggingUtils$Companion$OutputLogger$1.invoke$lambda$0#42: [libx264 @ 0x55a83cb5ce40] Weighted P-Frames: Y:0.0% UV:0.0%
Jibri 2024-09-10 04:51:08.946 INFO: [1656] LoggingUtils$Companion$OutputLogger$1.invoke$lambda$0#42: [libx264 @ 0x55a83cb5ce40] kb/s:56.50
Jibri 2024-09-10 04:51:08.950 INFO: [1656] LoggingUtils$Companion$OutputLogger$1.invoke$lambda$0#42: [aac @ 0x55a83cb5df80] Qavg: 63968.750
Jibri 2024-09-10 04:51:08.950 INFO: [1656] LoggingUtils$Companion$OutputLogger$1.invoke$lambda$0#42: Exiting normally, received signal 2.
